<svg xmlns="http://www.w3.org/2000/svg" width="450" height="60" viewBox="0 0 450 60">
  <defs>
    <linearGradient id="grad" x1="0%" y1="0%" x2="100%" y2="0%">
      <stop offset="0%" stop-color="#1f6feb" />
      <stop offset="100%" stop-color="#58a6ff" />
    </linearGradient>
    <style>
      .title {
        font-family: -apple-system, BlinkMacSystemFont, "Segoe UI", Helvetica, Arial, sans-serif;
        font-size: 20px;
        font-weight: 800;
        fill: url(#grad);
        letter-spacing: 1.5px;
      }
      .line {
        stroke: url(#grad);
        stroke-width: 4;
        stroke-linecap: round;
      }
    </style>
  </defs>
  <line x1="8" y1="16" x2="8" y2="44" class="line" />
  <g transform="translate(18, 16)">
    <path d="M9.5 2A2.5 2.5 0 0 1 12 4.5v15a2.5 2.5 0 0 1-4.96-.44 2.5 2.5 0 0 1 0-3.12 3 3 0 0 1 0-7.88A2.5 2.5 0 0 1 9.5 2Z" fill="none" stroke="url(#grad)" stroke-width="2" stroke-linejoin="round"/>
    <path d="M14.5 2A2.5 2.5 0 0 0 12 4.5v15a2.5 2.5 0 0 0 4.96-.44 2.5 2.5 0 0 0 0-3.12 3 3 0 0 0 0-7.88A2.5 2.5 0 0 0 14.5 2Z" fill="none" stroke="url(#grad)" stroke-width="2" stroke-linejoin="round"/>
  </g>
  <text x="56" y="37" class="title">AI WORK HISTORY</text>
</svg>
